<svg width="32" height="32" viewBox="0 0 32 32" fill="none" xmlns="http://www.w3.org/2000/svg">
<path d="M23.6552 28.8766C22.1309 30.3542 20.4667 30.1209 18.8647 29.421C17.1693 28.7055 15.614 28.6744 13.8253 29.421C11.5856 30.3853 10.4035 30.1053 9.06593 28.8766C1.47577 21.0532 2.59563 9.1391 11.2123 8.7036C13.3121 8.81247 14.7741 9.85456 16.0028 9.94789C17.8382 9.5746 19.5957 8.5014 21.5555 8.64138C23.9041 8.82803 25.6772 9.76124 26.8437 11.441C21.991 14.3496 23.1419 20.7421 27.5903 22.5307C26.7037 24.8638 25.5527 27.1813 23.6396 28.8922L23.6552 28.8766ZM15.8473 8.61028C15.614 5.14183 18.4292 2.27996 21.6643 2C22.1154 6.01283 18.0248 8.99912 15.8473 8.61028Z" fill="black"/>
</svg>
